<?xml version="1.0" encoding="UTF-8"?> <svg xmlns="http://www.w3.org/2000/svg" xmlns:xlink="http://www.w3.org/1999/xlink" width="1152.372" height="755.677" viewBox="0 0 1152.372 755.677"><defs><radialGradient id="radial-gradient" cx="0.5" cy="0.5" r="0.703" gradientTransform="matrix(0.598, -0.801, 0.629, 0.47, -0.114, 0.666)" gradientUnits="objectBoundingBox"><stop offset="0" stop-color="#fff"></stop><stop offset="0.498" stop-color="#fff"></stop><stop offset="1" stop-color="#eefdff"></stop></radialGradient><linearGradient id="linear-gradient" x1="0.5" x2="0.5" y2="1" gradientUnits="objectBoundingBox"><stop offset="0" stop-color="#c7e2ff"></stop><stop offset="1" stop-color="#daecfe"></stop></linearGradient><linearGradient id="linear-gradient-2" x1="0.5" x2="0.5" y2="1" gradientUnits="objectBoundingBox"><stop offset="0" stop-color="#a8d2ff"></stop><stop offset="1" stop-color="#8dc3ff"></stop></linearGradient><clipPath id="clip-path"><rect width="560.428" height="59.876" fill="none"></rect></clipPath><clipPath id="clip-path-2"><rect width="18" height="18" fill="none"></rect></clipPath><linearGradient id="linear-gradient-3" x1="0.374" y1="0.655" x2="0.402" gradientUnits="objectBoundingBox"><stop offset="0" stop-color="#e2f0ff" stop-opacity="0.302"></stop><stop offset="1" stop-color="#fff" stop-opacity="0.302"></stop></linearGradient><linearGradient id="linear-gradient-4" x1="0.449" y1="0.328" x2="0.473" y2="-0.092" xlink:href="#linear-gradient-3"></linearGradient><linearGradient id="linear-gradient-5" x1="0.39" y1="1" x2="0.218" y2="0.283" xlink:href="#linear-gradient-3"></linearGradient><linearGradient id="linear-gradient-8" x1="0.524" y1="0.739" x2="0.512" y2="1" xlink:href="#linear-gradient-3"></linearGradient><linearGradient id="linear-gradient-12" x1="0.627" y1="0.346" x2="1" y2="0.379" xlink:href="#linear-gradient-3"></linearGradient><linearGradient id="linear-gradient-14" x1="0.817" y1="0.579" x2="0.134" y2="0.568" gradientUnits="objectBoundingBox"><stop offset="0" stop-color="#e2f0ff" stop-opacity="0.302"></stop><stop offset="1" stop-color="#fff"></stop></linearGradient><linearGradient id="linear-gradient-18" x1="0.428" y1="0.639" x2="0.412" y2="0.939" xlink:href="#linear-gradient-3"></linearGradient><radialGradient id="radial-gradient-2" cx="0.5" cy="0.5" r="0.608" gradientTransform="matrix(0.683, -0.731, 0.679, 0.634, -0.181, 0.548)" gradientUnits="objectBoundingBox"><stop offset="0" stop-color="#6866e5"></stop><stop offset="1" stop-color="#5351c1"></stop></radialGradient><linearGradient id="linear-gradient-20" x1="0.345" y1="0.035" x2="0.837" y2="0.922" gradientUnits="objectBoundingBox"><stop offset="0" stop-color="#00c59e"></stop><stop offset="1" stop-color="#01be98"></stop></linearGradient><linearGradient id="linear-gradient-21" x1="0.878" y1="0.871" x2="0.5" y2="1" gradientUnits="objectBoundingBox"><stop offset="0" stop-color="#00c59e"></stop><stop offset="1" stop-color="#05a888"></stop></linearGradient><radialGradient id="radial-gradient-3" cx="0.557" cy="0.546" r="0.542" gradientTransform="matrix(1, 0, 0, 1.4, 0, -0.218)" gradientUnits="objectBoundingBox"><stop offset="0" stop-color="#6260db"></stop><stop offset="1" stop-color="#4442c4"></stop></radialGradient><linearGradient id="linear-gradient-22" x1="-0.512" y1="0.239" x2="0.881" y2="0.262" gradientUnits="objectBoundingBox"><stop offset="0" stop-color="#00c59e"></stop><stop offset="1" stop-color="#14b797"></stop></linearGradient><linearGradient id="linear-gradient-23" x1="0.459" y1="0.863" x2="0.5" y2="1" gradientUnits="objectBoundingBox"><stop offset="0" stop-color="#e5936f"></stop><stop offset="1" stop-color="#e96a32"></stop></linearGradient><linearGradient id="linear-gradient-24" x1="0.424" y1="0.566" x2="0.319" y2="0.622" gradientUnits="objectBoundingBox"><stop offset="0" stop-color="#e5936f"></stop><stop offset="1" stop-color="#e68155"></stop></linearGradient><linearGradient id="linear-gradient-25" y1="0.354" x2="0.5" y2="0.449" gradientUnits="objectBoundingBox"><stop offset="0" stop-color="#ffb900"></stop><stop offset="1" stop-color="#f90"></stop></linearGradient><linearGradient id="linear-gradient-26" x1="0.335" y1="0.679" x2="0.322" y2="1" xlink:href="#linear-gradient-25"></linearGradient><linearGradient id="linear-gradient-27" x1="0.527" y1="0.599" x2="0.344" y2="0.883" gradientUnits="objectBoundingBox"><stop offset="0" stop-color="#f90"></stop><stop offset="1" stop-color="#ffb900"></stop></linearGradient><linearGradient id="linear-gradient-28" x1="0.105" y1="0.408" x2="0.331" y2="0.738" gradientUnits="objectBoundingBox"><stop offset="0" stop-color="#974f4f"></stop><stop offset="1" stop-color="#d58866"></stop></linearGradient><linearGradient id="linear-gradient-29" x1="0.544" y1="0.509" x2="0.086" y2="0.509" gradientUnits="objectBoundingBox"><stop offset="0" stop-color="#f8cdba"></stop><stop offset="1" stop-color="#ffb99a"></stop></linearGradient><linearGradient id="linear-gradient-30" x1="0.639" y1="0.63" x2="0" y2="0.63" gradientUnits="objectBoundingBox"><stop offset="0" stop-color="#f8cdba"></stop><stop offset="1" stop-color="#ffab87"></stop></linearGradient><linearGradient id="linear-gradient-31" x1="0.119" y1="0.809" x2="0.864" y2="0.5" gradientUnits="objectBoundingBox"><stop offset="0" stop-color="#6b7aff"></stop><stop offset="1" stop-color="#3e51ff"></stop></linearGradient><linearGradient id="linear-gradient-32" x1="0.5" x2="0.502" y2="0.658" gradientUnits="objectBoundingBox"><stop offset="0" stop-color="#b2b2ff"></stop><stop offset="1" stop-color="#e5e5ff"></stop></linearGradient><linearGradient id="linear-gradient-33" x1="0.514" y1="0.205" x2="0.491" y2="0.684" xlink:href="#linear-gradient-32"></linearGradient><linearGradient id="linear-gradient-34" x1="0.439" y1="-0.168" x2="0.517" y2="0.707" gradientUnits="objectBoundingBox"><stop offset="0" stop-color="#e5e5ff"></stop><stop offset="1" stop-color="#d4d4fb"></stop></linearGradient><linearGradient id="linear-gradient-35" x1="0.463" y1="0.746" x2="0.31" y2="-0.011" gradientUnits="objectBoundingBox"><stop offset="0" stop-color="#d5d5ff"></stop><stop offset="1" stop-color="#e5e5ff"></stop></linearGradient><linearGradient id="linear-gradient-36" x1="0.569" y1="0.449" x2="0.272" y2="0.946" gradientUnits="objectBoundingBox"><stop offset="0" stop-color="#ff5c06"></stop><stop offset="1" stop-color="#ff2a1f"></stop></linearGradient><linearGradient id="linear-gradient-37" x1="0.426" y1="0.435" x2="0.5" y2="1" xlink:href="#linear-gradient-36"></linearGradient><linearGradient id="linear-gradient-38" x1="0" y1="0.41" x2="0.955" y2="0.398" xlink:href="#linear-gradient-36"></linearGradient><linearGradient id="linear-gradient-39" x1="0.5" x2="0.5" y2="1" gradientUnits="objectBoundingBox"><stop offset="0" stop-color="#ffbc04"></stop><stop offset="1" stop-color="#ff9b06"></stop></linearGradient><linearGradient id="linear-gradient-40" x1="0.982" y1="0.23" x2="0.714" y2="0.762" gradientUnits="objectBoundingBox"><stop offset="0" stop-color="#fe9a75"></stop><stop offset="1" stop-color="#ffc8b3"></stop></linearGradient><linearGradient id="linear-gradient-41" x1="0.5" x2="0.5" y2="1" gradientUnits="objectBoundingBox"><stop offset="0" stop-color="#7e4f25"></stop><stop offset="1" stop-color="#b47134"></stop></linearGradient><linearGradient id="linear-gradient-42" x1="0.5" x2="0.5" y2="1" gradientUnits="objectBoundingBox"><stop offset="0" stop-color="#ffc229"></stop><stop offset="1" stop-color="#fcbd2c"></stop></linearGradient><linearGradient id="linear-gradient-43" x1="0.523" y1="0.569" x2="0.495" y2="0.859" gradientUnits="objectBoundingBox"><stop offset="0" stop-color="#7ed79c"></stop><stop offset="1" stop-color="#a9e5bd"></stop></linearGradient><linearGradient id="linear-gradient-44" x1="0.508" y1="0.085" x2="0.522" y2="0.364" gradientUnits="objectBoundingBox"><stop offset="0" stop-color="#96dcae"></stop><stop offset="1" stop-color="#7dd49b"></stop></linearGradient><linearGradient id="linear-gradient-45" x1="0.268" y1="0.361" x2="0.314" y2="0.531" gradientUnits="objectBoundingBox"><stop offset="0" stop-color="#c9f3d7"></stop><stop offset="1" stop-color="#a6e7bc"></stop></linearGradient><linearGradient id="linear-gradient-46" x1="0.5" y1="0.267" x2="0.5" y2="1" xlink:href="#linear-gradient-45"></linearGradient><linearGradient id="linear-gradient-47" x1="0.5" y1="-0.054" x2="0.482" y2="1" gradientUnits="objectBoundingBox"><stop offset="0" stop-color="#b8ebc9"></stop><stop offset="1" stop-color="#a6e7bc"></stop></linearGradient><linearGradient id="linear-gradient-48" x1="0.614" y1="0.544" x2="0.829" y2="0.926" gradientUnits="objectBoundingBox"><stop offset="0" stop-color="#c7e2fe"></stop><stop offset="1" stop-color="#81b6eb"></stop></linearGradient><clipPath id="clip-path-10"><path id="Path_2611" data-name="Path 2611" d="M3193.665-5843.3a9.012,9.012,0,0,0,7.084-3.412c10.014-12.71,16.412-32.082,16.412-53.784v-.093a9.041,9.041,0,0,0-9.058-9h-70.811a9.04,9.04,0,0,0-9.058,9v.093c0,21.7,6.4,41.073,16.413,53.784a9.012,9.012,0,0,0,7.084,3.412Z" transform="translate(-3128.235 5909.587)" fill="#a5d1fe"></path></clipPath><linearGradient id="linear-gradient-49" x1="0.805" y1="0.744" x2="0.248" y2="1.054" gradientUnits="objectBoundingBox"><stop offset="0" stop-color="#c1f7ff"></stop><stop offset="1" stop-color="#d4fbff"></stop></linearGradient><linearGradient id="linear-gradient-50" x1="0.045" y1="0.555" x2="0.972" y2="0.469" gradientUnits="objectBoundingBox"><stop offset="0" stop-color="#ecfcff"></stop><stop offset="1" stop-color="#d1f4fb"></stop></linearGradient><linearGradient id="linear-gradient-51" x1="0.5" x2="0.5" y2="1" gradientUnits="objectBoundingBox"><stop offset="0" stop-color="#c8f8ff"></stop><stop offset="1" stop-color="#cbf1f5"></stop></linearGradient></defs><g id="illustration" transform="translate(-398.824 -84.323)"><path id="bg" d="M540.948-14.16c260.056,0,501.8,245.447,501.8,397.039S832.822,652.761,572.766,652.761-7.421,492.566-7.421,340.974,280.893-14.16,540.948-14.16Z" transform="translate(406.976 162.027) rotate(-3)" fill="url(#radial-gradient)"></path><g id="big_calendar" data-name="big calendar" transform="translate(-192.987 -2814.075)"><path id="shadow" d="M5.795,0,768,19.5,685,54H0Z" transform="translate(792 3558)" opacity="0.03"></path><path id="next_sheet" data-name="next sheet" d="M2881.3-10148.447l65.94,445.318H2778.667Z" transform="translate(-1387.909 13280.554)" fill="url(#linear-gradient)"></path><path id="current_sheet" data-name="current sheet" d="M2208-9669.554,2255.565-10148h653.318l-16.788,478.446Z" transform="translate(-1416 13280.554)" fill="#fff" stroke="#a8d2ff" stroke-width="1"></path><g id="top"><path id="bg-2" data-name="bg" d="M2249.075-10097.944l4.9-49.626,653.312-.508-2.2,50.13Z" transform="translate(-1414.097 13280.554)" fill="url(#linear-gradient-2)"></path><g id="Clamp" transform="translate(888 3104.124)" clip-path="url(#clip-path)"><g transform="translate(-923.822 -3104.124)"><g id="Repeat_Grid_6" data-name="Repeat Grid 6" transform="translate(931 3146)" clip-path="url(#clip-path-2)"><g transform="translate(-920 -3154)"><circle id="Ellipse_1725" data-name="Ellipse 1725" cx="9" cy="9" r="9" transform="translate(920 3154)" fill="#419fff"></circle><circle id="Ellipse_1726" data-name="Ellipse 1726" cx="8" cy="8" r="8" transform="translate(922 3156)" fill="#fff"></circle></g></g><path id="Path_7301" data-name="Path 7301" d="M169.712,572.9c-6.351-2.216-11.212-10.053-11.212-19.367,0-11.127,6.939-20.148,15.5-20.148,7.354,0,13.511,6.659,15.187,16.325" transform="translate(770.5 2582.097)" fill="none" stroke="#4d4d4d" stroke-linecap="round" stroke-miterlimit="10" stroke-width="2.5"></path></g><g transform="translate(-849.822 -3104.124)"><g id="Repeat_Grid_6-2" data-name="Repeat Grid 6" transform="translate(931 3146)" clip-path="url(#clip-path-2)"><g transform="translate(-920 -3154)"><circle id="Ellipse_1725-2" data-name="Ellipse 1725" cx="9" cy="9" r="9" transform="translate(920 3154)" fill="#419fff"></circle><circle id="Ellipse_1726-2" data-name="Ellipse 1726" cx="8" cy="8" r="8" transform="translate(922 3156)" fill="#fff"></circle></g></g><path id="Path_7301-2" data-name="Path 7301" d="M169.712,572.9c-6.351-2.216-11.212-10.053-11.212-19.367,0-11.127,6.939-20.148,15.5-20.148,7.354,0,13.511,6.659,15.187,16.325" transform="translate(770.5 2582.097)" fill="none" stroke="#4d4d4d" stroke-linecap="round" stroke-miterlimit="10" stroke-width="2.5"></path></g><g transform="translate(-775.822 -3104.124)"><g id="Repeat_Grid_6-3" data-name="Repeat Grid 6" transform="translate(931 3146)" clip-path="url(#clip-path-2)"><g transform="translate(-920 -3154)"><circle id="Ellipse_1725-3" data-name="Ellipse 1725" cx="9" cy="9" r="9" transform="translate(920 3154)" fill="#419fff"></circle><circle id="Ellipse_1726-3" data-name="Ellipse 1726" cx="8" cy="8" r="8" transform="translate(922 3156)" fill="#fff"></circle></g></g><path id="Path_7301-3" data-name="Path 7301" d="M169.712,572.9c-6.351-2.216-11.212-10.053-11.212-19.367,0-11.127,6.939-20.148,15.5-20.148,7.354,0,13.511,6.659,15.187,16.325" transform="translate(770.5 2582.097)" fill="none" stroke="#4d4d4d" stroke-linecap="round" stroke-miterlimit="10" stroke-width="2.5"></path></g><g transform="translate(-701.822 -3104.124)"><g id="Repeat_Grid_6-4" data-name="Repeat Grid 6" transform="translate(931 3146)" clip-path="url(#clip-path-2)"><g transform="translate(-920 -3154)"><circle id="Ellipse_1725-4" data-name="Ellipse 1725" cx="9" cy="9" r="9" transform="translate(920 3154)" fill="#419fff"></circle><circle id="Ellipse_1726-4" data-name="Ellipse 1726" cx="8" cy="8" r="8" transform="translate(922 3156)" fill="#fff"></circle></g></g><path id="Path_7301-4" data-name="Path 7301" d="M169.712,572.9c-6.351-2.216-11.212-10.053-11.212-19.367,0-11.127,6.939-20.148,15.5-20.148,7.354,0,13.511,6.659,15.187,16.325" transform="translate(770.5 2582.097)" fill="none" stroke="#4d4d4d" stroke-linecap="round" stroke-miterlimit="10" stroke-width="2.5"></path></g><g transform="translate(-627.822 -3104.124)"><g id="Repeat_Grid_6-5" data-name="Repeat Grid 6" transform="translate(931 3146)" clip-path="url(#clip-path-2)"><g transform="translate(-920 -3154)"><circle id="Ellipse_1725-5" data-name="Ellipse 1725" cx="9" cy="9" r="9" transform="translate(920 3154)" fill="#419fff"></circle><circle id="Ellipse_1726-5" data-name="Ellipse 1726" cx="8" cy="8" r="8" transform="translate(922 3156)" fill="#fff"></circle></g></g><path id="Path_7301-5" data-name="Path 7301" d="M169.712,572.9c-6.351-2.216-11.212-10.053-11.212-19.367,0-11.127,6.939-20.148,15.5-20.148,7.354,0,13.511,6.659,15.187,16.325" transform="translate(770.5 2582.097)" fill="none" stroke="#4d4d4d" stroke-linecap="round" stroke-miterlimit="10" stroke-width="2.5"></path></g><g transform="translate(-553.822 -3104.124)"><g id="Repeat_Grid_6-6" data-name="Repeat Grid 6" transform="translate(931 3146)" clip-path="url(#clip-path-2)"><g transform="translate(-920 -3154)"><circle id="Ellipse_1725-6" data-name="Ellipse 1725" cx="9" cy="9" r="9" transform="translate(920 3154)" fill="#419fff"></circle><circle id="Ellipse_1726-6" data-name="Ellipse 1726" cx="8" cy="8" r="8" transform="translate(922 3156)" fill="#fff"></circle></g></g><path id="Path_7301-6" data-name="Path 7301" d="M169.712,572.9c-6.351-2.216-11.212-10.053-11.212-19.367,0-11.127,6.939-20.148,15.5-20.148,7.354,0,13.511,6.659,15.187,16.325" transform="translate(770.5 2582.097)" fill="none" stroke="#4d4d4d" stroke-linecap="round" stroke-miterlimit="10" stroke-width="2.5"></path></g><g transform="translate(-479.822 -3104.124)"><g id="Repeat_Grid_6-7" data-name="Repeat Grid 6" transform="translate(931 3146)" clip-path="url(#clip-path-2)"><g transform="translate(-920 -3154)"><circle id="Ellipse_1725-7" data-name="Ellipse 1725" cx="9" cy="9" r="9" transform="translate(920 3154)" fill="#419fff"></circle><circle id="Ellipse_1726-7" data-name="Ellipse 1726" cx="8" cy="8" r="8" transform="translate(922 3156)" fill="#fff"></circle></g></g><path id="Path_7301-7" data-name="Path 7301" d="M169.712,572.9c-6.351-2.216-11.212-10.053-11.212-19.367,0-11.127,6.939-20.148,15.5-20.148,7.354,0,13.511,6.659,15.187,16.325" transform="translate(770.5 2582.097)" fill="none" stroke="#4d4d4d" stroke-linecap="round" stroke-miterlimit="10" stroke-width="2.5"></path></g><g transform="translate(-405.822 -3104.124)"><g id="Repeat_Grid_6-8" data-name="Repeat Grid 6" transform="translate(931 3146)" clip-path="url(#clip-path-2)"><g transform="translate(-920 -3154)"><circle id="Ellipse_1725-8" data-name="Ellipse 1725" cx="9" cy="9" r="9" transform="translate(920 3154)" fill="#419fff"></circle><circle id="Ellipse_1726-8" data-name="Ellipse 1726" cx="8" cy="8" r="8" transform="translate(922 3156)" fill="#fff"></circle></g></g><path id="Path_7301-8" data-name="Path 7301" d="M169.712,572.9c-6.351-2.216-11.212-10.053-11.212-19.367,0-11.127,6.939-20.148,15.5-20.148,7.354,0,13.511,6.659,15.187,16.325" transform="translate(770.5 2582.097)" fill="none" stroke="#4d4d4d" stroke-linecap="round" stroke-miterlimit="10" stroke-width="2.5"></path></g></g></g><g id="content" transform="translate(2)"><g id="Group_7809" data-name="Group 7809"><path id="Path_7297" data-name="Path 7297" d="M2303-10067l-29,322" transform="translate(-1380 13303)" fill="none" stroke="#edf6ff" stroke-width="2"></path><path id="Path_7297-2" data-name="Path 7297" d="M2303-10067l-29,322" transform="translate(-1287 13303)" fill="none" stroke="#edf6ff" stroke-width="2"></path><path id="Path_7297-3" data-name="Path 7297" d="M2303-10067l-29,322" transform="translate(-1194 13303)" fill="none" stroke="#edf6ff" stroke-width="2"></path><path id="Path_7297-4" data-name="Path 7297" d="M2297-10067l-23,322" transform="translate(-1101 13303)" fill="none" stroke="#edf6ff" stroke-width="2"></path><path id="Path_7297-5" data-name="Path 7297" d="M2299-10067l-25,322" transform="translate(-1008 13303)" fill="none" stroke="#edf6ff" stroke-width="2"></path><path id="Path_7297-6" data-name="Path 7297" d="M2299-10067l-20,322" transform="translate(-915 13303)" fill="none" stroke="#edf6ff" stroke-width="2"></path></g><g id="Group_7818" data-name="Group 7818"><path id="Path_7298" data-name="Path 7298" d="M2233.424-10008H2828" transform="translate(-1380 13303)" fill="none" stroke="#edf6ff" stroke-width="2"></path><path id="Path_7298-2" data-name="Path 7298" d="M2230.424-10008H2828" transform="translate(-1383 13371)" fill="none" stroke="#edf6ff" stroke-width="2"></path><path id="Path_7298-3" data-name="Path 7298" d="M2230.424-10008H2832" transform="translate(-1390 13439)" fill="none" stroke="#edf6ff" stroke-width="2"></path><path id="Path_7298-4" data-name="Path 7298" d="M2241.424-10008H2848" transform="translate(-1408 13507)" fill="none" stroke="#edf6ff" stroke-width="2"></path></g><g id="Group_7817" data-name="Group 7817"><path id="Path_7306" data-name="Path 7306" d="M2304.078-10067l-5.744,58H2393l3.286-58Z" transform="translate(-1013 13303)" fill="url(#linear-gradient-3)"></path><path id="Path_7307" data-name="Path 7307" d="M2303.737-10067l-5.4,58h89.055l3.091-58Z" transform="translate(-1195 13303)" fill="url(#linear-gradient-4)"></path><path id="Path_7313" data-name="Path 7313" d="M2303.944-10067l-5.61,66.5h92.457L2394-10067Z" transform="translate(-1208 13431.5)" fill="url(#linear-gradient-5)"></path><path id="Path_7317" data-name="Path 7317" d="M2304.139-10067l-5.806,66.5h95.679l3.321-66.5Z" transform="translate(-1122 13499.5)" fill="url(#linear-gradient-5)"></path><path id="Path_7314" data-name="Path 7314" d="M2303.944-10067l-5.61,66.5H2394.5l4.75-66.5Z" transform="translate(-1023 13431.5)" fill="url(#linear-gradient-4)"></path><path id="Path_7316" data-name="Path 7316" d="M2304.008-10067l-5.674,60.5H2395.6l4.8-60.5Z" transform="translate(-1033 13564.5)" fill="url(#linear-gradient-8)"></path><path id="Path_7318" data-name="Path 7318" d="M2303.786-10067l-5.452,60.5h93.45l4.616-60.5Z" transform="translate(-1219 13566.5)" fill="url(#linear-gradient-8)"></path><path id="Path_7309" data-name="Path 7309" d="M2303.993-10067l-5.659,64.5H2391.6l3.237-64.5Z" transform="translate(-1293 13363.5)" fill="url(#linear-gradient-4)"></path><path id="Path_7310" data-name="Path 7310" d="M2304.409-10066.727l-5.176,67.623,93.5-.334,5.844-67.121Z" transform="translate(-1112.334 13362.001)" stroke="#2c93fc" stroke-width="1" stroke-dasharray="9" fill="url(#linear-gradient-5)"></path><path id="Path_7311" data-name="Path 7311" d="M2302.615-10067l-4.281,68h70.552l2.448-68Z" transform="translate(-923.334 13361.001)" fill="url(#linear-gradient-12)"></path><path id="Path_7315" data-name="Path 7315" d="M2302.615-10067l-4.281,68h70.552l2.448-68Z" transform="translate(-929.334 13498.001)" fill="url(#linear-gradient-12)"></path><path id="Path_7308" data-name="Path 7308" d="M2302.884-10067l-4.551,68h75l2.6-68Z" transform="translate(-1459.934 13362)" fill="url(#linear-gradient-14)"></path><path id="Path_7321" data-name="Path 7321" d="M2302.884-10067l-4.551,68h74.6l6.5-68Z" transform="translate(-1473.934 13498)" fill="url(#linear-gradient-14)"></path><path id="Path_7305" data-name="Path 7305" d="M2304-10067l-5.667,58h92.333l5-58Z" transform="translate(-1380 13303)" fill="url(#linear-gradient-4)"></path><path id="Path_7312" data-name="Path 7312" d="M2304.1-10067l-5.77,70h94.007l5.993-70Z" transform="translate(-1393.133 13430)" fill="url(#linear-gradient-4)"></path><path id="Path_7320" data-name="Path 7320" d="M2304.1-10067l-5.77,62h94.007l5.993-62Z" transform="translate(-1404.133 13566)" fill="url(#linear-gradient-18)"></path><path id="Path_7319" data-name="Path 7319" d="M2304.6-10068.6l-6.267,67.6H2390.6l7-67.6Z" transform="translate(-1306 13500)" fill="url(#linear-gradient-5)"></path></g><g id="Group_7816" data-name="Group 7816"><ellipse id="Ellipse_1729" data-name="Ellipse 1729" cx="7" cy="7.5" rx="7" ry="7.5" transform="matrix(0.966, 0.259, -0.259, 0.966, 861.18, 3234.443)" fill="#f5f5f5"></ellipse><g id="Ellipse_1733" data-name="Ellipse 1733" transform="matrix(0.966, 0.259, -0.259, 0.966, 858.25, 3229.716)" fill="none" stroke="#e6f2ff" stroke-width="1"><ellipse cx="11" cy="11.5" rx="11" ry="11.5" stroke="none"></ellipse><ellipse cx="11" cy="11.5" rx="10.5" ry="11" fill="none"></ellipse></g><g id="Group_7811" data-name="Group 7811" transform="translate(-73 -67)"><path id="Path_7302" data-name="Path 7302" d="M20.117,0,174.833.083l-2.117,22L18,22Z" transform="translate(912 3328)" fill="#f7f1fe"></path><path id="Path_7303" data-name="Path 7303" d="M4.152,0H11L8.848,22H2Z" transform="translate(923 3328)" fill="#8a43eb"></path><rect id="Rectangle_2204" data-name="Rectangle 2204" width="112.75" height="6" rx="3" transform="translate(950 3336)" fill="#8a43eb" opacity="0.2"></rect></g><g id="Group_7810" data-name="Group 7810"><path id="Path_7302-2" data-name="Path 7302" d="M4.117,0,94.833.083l-2.117,22L2,22Z" transform="translate(912 3328)" fill="#419fff" opacity="0.1"></path><path id="Path_7303-2" data-name="Path 7303" d="M4.152,0H11L8.848,22H2Z" transform="translate(911 3328)" fill="#419fff"></path><rect id="Rectangle_2204-2" data-name="Rectangle 2204" width="52.75" height="6" rx="3" transform="translate(930 3336)" fill="#419fff" opacity="0.2"></rect></g><g id="Group_7814" data-name="Group 7814" transform="translate(275 1)"><path id="Path_7302-3" data-name="Path 7302" d="M4.117,0,95.833.083l-2.117,22L2,22Z" transform="translate(912 3328)" fill="#f171b0" opacity="0.1"></path><path id="Path_7303-3" data-name="Path 7303" d="M4.049,0H11L9.237,22H2.3Z" transform="translate(911 3328)" fill="#ff017e"></path><rect id="Rectangle_2204-3" data-name="Rectangle 2204" width="52.75" height="6" rx="3" transform="translate(930 3336)" fill="#f171b0" opacity="0.2"></rect></g><g id="Group_7812" data-name="Group 7812" transform="translate(81 134)"><path id="Path_7302-4" data-name="Path 7302" d="M4.117,0,94.833.083l-2.117,22L2,22Z" transform="translate(912 3328)" fill="#fb0" opacity="0.1"></path><path id="Path_7303-4" data-name="Path 7303" d="M4.152,0H11L8.848,22H2Z" transform="translate(911 3328)" fill="#fb0"></path><rect id="Rectangle_2204-4" data-name="Rectangle 2204" width="52.75" height="6" rx="3" transform="translate(930 3336)" fill="#fb0" opacity="0.2"></rect></g><g id="Group_7813" data-name="Group 7813" transform="translate(179 66)"><path id="Path_7302-5" data-name="Path 7302" d="M6.3,0H187l-2,22H2Z" transform="translate(912 3328)" fill="#e4f5f5"></path><path id="Path_7303-5" data-name="Path 7303" d="M4.152,0H11L8.848,22H2Z" transform="translate(911 3328)" fill="#19c798"></path><rect id="Rectangle_2204-5" data-name="Rectangle 2204" width="119.75" height="6" rx="3" transform="translate(930 3336)" fill="#19c798" opacity="0.2"></rect></g><ellipse id="Ellipse_1727" data-name="Ellipse 1727" cx="7" cy="7.5" rx="7" ry="7.5" transform="matrix(0.966, 0.259, -0.259, 0.966, 926.18, 3301.444)" fill="#f5f5f5"></ellipse><ellipse id="Ellipse_1731" data-name="Ellipse 1731" cx="7" cy="7.5" rx="7" ry="7.5" transform="matrix(0.966, 0.259, -0.259, 0.966, 1201.18, 3302.444)" fill="#2c93fc" opacity="0.28"></ellipse><ellipse id="Ellipse_1728" data-name="Ellipse 1728" cx="7" cy="7.5" rx="7" ry="7.5" transform="matrix(0.966, 0.259, -0.259, 0.966, 1008.18, 3437.443)" fill="#f5f5f5"></ellipse><ellipse id="Ellipse_1730" data-name="Ellipse 1730" cx="7" cy="7.5" rx="7" ry="7.5" transform="matrix(0.966, 0.259, -0.259, 0.966, 1106.18, 3369.443)" fill="#f5f5f5"></ellipse></g></g></g><g id="boy" transform="translate(488.013 410.949)"><ellipse id="Ellipse_1732" data-name="Ellipse 1732" cx="102.871" cy="9.394" rx="102.871" ry="9.394" transform="translate(-9.326 410.262)" opacity="0.04"></ellipse><g id="Group_3105" data-name="Group 3105" transform="translate(21.816 194.515)"><g id="Group_2192" data-name="Group 2192" transform="translate(0 0)"><g id="Group_2193" data-name="Group 2193"><path id="Path_2581" data-name="Path 2581" d="M152.992,336.039c0,2.914-1,20.862-1,20.862h45.273a10.853,10.853,0,0,0,0-4.77,8.835,8.835,0,0,0-5.247-5.246c-4.789-1.226-12.547-4.54-13.783-5.423a8.732,8.732,0,0,1-3.164-8.935c.583-2.03-6.085.681-12.88,1.252A26.5,26.5,0,0,0,152.992,336.039Z" transform="translate(-63.869 -131.548)" fill="url(#radial-gradient-2)"></path><g id="Group_2143" data-name="Group 2143" transform="translate(21.437 0.129)"><path id="Path_5" data-name="Path 5" d="M161.774,183.112s12.392,53.482,18.436,95.777c8.134,56.924,11.524,110.5,11.524,110.5H168.517s-18.189-55.223-27.1-89.2S131.446,260,130.863,251.354c-19.523-42.357-30.549-68.241-30.549-68.241Z" transform="translate(-100.314 -183.112)" fill="url(#linear-gradient-20)"></path><path id="Path_7346" data-name="Path 7346" d="M191.734,389.385c-.186.383-23.921,0-23.921,0l-26.919-89.01S164.3,378.019,191.734,389.385Z" transform="translate(-100.314 -183.112)" fill="url(#linear-gradient-21)"></path></g><path id="Path_2014" data-name="Path 2014" d="M198.119,336.039V356.9H151.992a6.683,6.683,0,0,1,0-4.979c1.05-2.306,4.473-4.621,6.1-5.038,4.789-1.226,12.547-4.54,13.783-5.423a8.732,8.732,0,0,0,3.164-8.935c-.583-2.03,6.086.681,12.88,1.252A39.169,39.169,0,0,1,198.119,336.039Z" transform="translate(-151.992 -131.548)" fill="url(#radial-gradient-3)"></path><path id="Path_2013" data-name="Path 2013" d="M165.992,192.694s1.554,13.474-.869,38.613-5.108,54.585-5.108,54.585L157.94,390.9h-25.7s-10.762-90.458-9.132-141.836c.958-15.2,1.61-28.911,4.433-44.254S132.975,187,132.975,187,152.866,185.789,165.992,192.694Z" transform="translate(-110.191 -186.922)" fill="#00c59e"></path><path id="Path_7345" data-name="Path 7345" d="M151.135,275.839c0-16.4,9.351-25.549,9.351-25.549l2.4,11.359L160.486,288l-.935,65.295S151.135,292.237,151.135,275.839Z" transform="translate(-110.964 -185.922)" fill="url(#linear-gradient-22)"></path></g></g><path id="Path_2246" data-name="Path 2246" d="M-530.264,2364.181a79.893,79.893,0,0,0,3.3,20.891c3.3,10.723,5.742,14.81,5.742,14.81" transform="translate(565.258 -2355.918)" fill="none" stroke="#000" stroke-linecap="round" stroke-linejoin="round" stroke-width="1"></path><path id="Path_2249" data-name="Path 2249" d="M-524.1,2323.515l9.867,42.587" transform="translate(574.151 -2260.066)" fill="none" stroke="#000" stroke-linecap="round" stroke-linejoin="round" stroke-width="1"></path></g><g id="Group_3111" data-name="Group 3111" transform="translate(0.08 43.702)"><path id="Path_2679" data-name="Path 2679" d="M1465.221,200.113s18.506,7.457,28,3.728c7.321-2.847,26.369-31.386,24.878-57.823-1.152-20,1.424-20.878,1.424-20.878s11.8-11.727,14.168-13.964c2.373-2.169-8.135,4.135-8.135,4.135s1.559-3.254,9.355-7.931c.746-.475-2.034-.068-5.965,1.152-1.627.475,3.389-4.813,1.559-4.067-7.253,2.847-8.135,4.948-9.287,5.559-3.186,1.627-5.288,4.745-7.253,7.185-6.44,8.067-31.86,34.843-31.86,54.094-8.745-3.593-12.405-8.88-12.405-8.88Z" transform="translate(-1356.814 -104.394)" fill="#e5936f"></path><path id="Path_7343" data-name="Path 7343" d="M1465.221,200.113a78.753,78.753,0,0,0,17.392,4.526c3.657.442,7.587.387,10.6-.8,7.321-2.847,26.369-31.386,24.878-57.823C1506.47,214.742,1465.221,200.113,1465.221,200.113Z" transform="translate(-1356.814 -104.394)" fill="url(#linear-gradient-23)"></path><path id="Path_2685" data-name="Path 2685" d="M1668.8,220.842s-16.372,15.263-17.118,25.431c-.61,7.8,16.879,37.351,41.418,47.383,18.506,7.592,9.965-35.114-7.389-43.384,6.982-6.372,13.354-7.389,13.354-7.389Z" transform="translate(-1651.668 -142.486)" fill="#e5936f"></path><path id="Path_7344" data-name="Path 7344" d="M1654.8,237.791a20.788,20.788,0,0,0-3.115,8.482c-.61,7.8,16.879,37.351,41.418,47.383C1711.608,301.248,1660.075,281.335,1654.8,237.791Z" transform="translate(-1651.668 -142.486)" fill="url(#linear-gradient-24)"></path><path id="Path_2680" data-name="Path 2680" d="M1686.383,155.1c-3.661,2.3-37.283,38.5-37.283,43.858s14.032,28.742,18.981,35.656S1686.383,155.1,1686.383,155.1Z" transform="translate(-1632.815 -120.727)" fill="#ffb900"></path><path id="Path_7338" data-name="Path 7338" d="M42.876,44.062s-13.1,18.368-16.614,33.27,4.033,28.66,4.033,28.66L35.1,114.06Z" transform="translate(0.228 0.379)" fill="url(#linear-gradient-25)"></path><path id="Path_2681" data-name="Path 2681" d="M1602.7,137.4c-9.016,2.3-21.3,10.648-25.976,22.037-15.727,38.3-10.71,106.7-8.812,110.493,2.576,5.152,70.9,4.592,74.965,0,4.406-3.864-4.48-103.8-25.426-128.748C1612.43,135.193,1607.1,137.039,1602.7,137.4Z" transform="translate(-1534.007 -114.892)" fill="#ffb900"></path><path id="SHADOW-2" data-name="SHADOW" d="M1565.828,246.977c-.165,9.389,1.539,21.852,2.088,22.949,2.576,5.152,70.9,4.592,74.965,0C1647.288,266.062,1580.162,275.227,1565.828,246.977Z" transform="translate(-1534.007 -114.892)" fill="url(#linear-gradient-26)"></path><path id="Path_7337" data-name="Path 7337" d="M105.491,100.611s-19.831,11.437-31.808,1.33-14.446-38-14.446-38l29.5,27.611L105.063,97.8Z" transform="translate(0.51 0.55)" fill="url(#linear-gradient-27)"></path><path id="Path_2682" data-name="Path 2682" d="M1553.527,167.86c-7.728,18.167,43.248,55.111,50.434,48.807,14.913-13.015,11.32-34.843,8.813-36.47-4.339-2.779-14.168-13.693-23.726-21.014-9.219-7.118-17.489-8.27-19.658-9.083" transform="translate(-1496.164 -119.117)" fill="#ffb900"></path><path id="Path_2683" data-name="Path 2683" d="M1598.1,152.868a33.573,33.573,0,0,1,17.286,3.864,61.114,61.114,0,0,1,12.708,10.092" transform="translate(-1527.247 -119.987)" fill="none" stroke="#1f161e" stroke-linecap="round" stroke-linejoin="round" stroke-width="1"></path><path id="Path_2686" data-name="Path 2686" d="M1619.69,232.077c-17.566-5.547-35.3-24.41-40.59-32.477" transform="translate(-1519.432 -135.062)" fill="none" stroke="#1f161e" stroke-linecap="round" stroke-linejoin="round" stroke-width="1"></path><path id="Path_2684" data-name="Path 2684" d="M1668.808,150.724s-16.755,14.5-19.466,42.966a486.89,486.89,0,0,0-2.219,51" transform="translate(-1614.861 -119.773)" fill="none" stroke="#000" stroke-linecap="round" stroke-width="1"></path></g><g id="Component_37_2" data-name="Component 37 – 2" transform="translate(45.454 4.051)"><path id="Union_6" data-name="Union 6" d="M34.272,2.465a25.261,25.261,0,0,0-5.26-.55C17.974,1.915,8.682,9,5.93,18.64a6.959,6.959,0,0,0-.706,13.621,6.793,6.793,0,0,0-1.4,4.125,7.182,7.182,0,0,0,7.332,7.022,7.7,7.7,0,0,0,1.064-.073,7.252,7.252,0,0,0,7.226,5.819,7.473,7.473,0,0,0,5.217-2.088,7.52,7.52,0,0,0,12.038.666,7.513,7.513,0,0,0,4.424,1.422,7.183,7.183,0,0,0,7.333-7.023,6.744,6.744,0,0,0-.505-2.566,7.16,7.16,0,0,0,6.881-7.009,6.815,6.815,0,0,0-1.67-4.462,6.822,6.822,0,0,0-.093-10.31A6.772,6.772,0,0,0,54.2,14.044a7.167,7.167,0,0,0-7.014-7.015V7.022A7.182,7.182,0,0,0,39.852,0,7.453,7.453,0,0,0,34.272,2.465Z" transform="translate(55.473 50.43) rotate(180)"></path><path id="Path_202" data-name="Path 202" d="M89.632,82.02c0,2.8-16.2,2.881-16.2,0V62.35h16.2Z" transform="translate(-53.834 -15.313)" fill="#d58866"></path><path id="Path_203" data-name="Path 203" d="M84.36,70.393c-1.481,0-10.93,4.169-10.93,6.5V64.61C75.785,64.61,84.36,70.393,84.36,70.393Z" transform="translate(-53.834 -20.342)" fill="url(#linear-gradient-28)"></path><ellipse id="Ellipse_19" data-name="Ellipse 19" cx="15.521" cy="15.521" rx="15.521" ry="15.521" transform="translate(22.569 17.066) rotate(20)" fill="#e5936f"></ellipse><circle id="Ellipse_20" data-name="Ellipse 20" cx="4.184" cy="4.184" r="4.184" transform="translate(14.742 29.352) rotate(20)" fill="#e5936f"></circle><path id="Path_206" data-name="Path 206" d="M5.266,3.7S1.478,2.444,0,0" transform="matrix(0.921, -0.391, 0.391, 0.921, 28.205, 45.532)" fill="none" stroke="#000" stroke-linecap="round" stroke-width="1"></path><path id="Path_1914" data-name="Path 1914" d="M1166.58,81.631c3.5,2.07,3.658,10.109-2.613,7.376" transform="translate(-1127.466 -46.562)" fill="none" stroke="#1f161e" stroke-linecap="round" stroke-miterlimit="10" stroke-width="1"></path><path id="Path_1936" data-name="Path 1936" d="M-2963.711,1540.592c1.929,1.543,5.273,6.945,5.273,6.945s-1.8-10.032,5.273-12.391,9.646.686,11.576,3.516c1.543-3.087,6.817-4.588,6.817-4.588L-2947.2,1524l-23.8,11.147A63.663,63.663,0,0,0-2963.711,1540.592Z" transform="translate(2981.241 -1509.852)"></path></g></g><g id="girl" transform="translate(-200.457 -2886.41)"><g id="Component_99_1" data-name="Component 99 – 1" transform="translate(1314.265 3465.438)"><ellipse id="Ellipse_1737" data-name="Ellipse 1737" cx="107.566" cy="9.588" rx="107.566" ry="9.588" transform="translate(-20.272 238.083)" opacity="0.03"></ellipse><g id="Group_2274" data-name="Group 2274" transform="matrix(0.995, 0.105, -0.105, 0.995, 72.646, 31.3)"><path id="Union_16" data-name="Union 16" d="M0,194.3l8.918-61.5c-5.2-11.526-5.325-32.891-3.991-52.5C7.409,43.81,12.017,9.43,13.15,2.277c.9-5.66,12.029,1.016,12.029,1.016l10.8,129.994-.077.065.123,1.036L32.816,194.3Z" transform="translate(108.798 176.719) rotate(155)" fill="#f8cdba"></path><path id="Union_64" data-name="Union 64" d="M14.406,6.848C12.631,6.553,13.488.16,13.15,2.277,12.017,9.43,7.41,43.81,4.927,80.3c-1.289,18.948-1.22,39.537,3.642,51.526,1.365,3.367-1.56,11.167,1,12.96,2.61,1.84,7.528-4.458,7.528-4.458S12.2,118.2,11.528,84.826,16.32,7.157,14.406,6.848Z" transform="translate(108.798 176.719) rotate(155)" fill="url(#linear-gradient-29)"></path></g><path id="Union_17" data-name="Union 17" d="M0,194.3l9.386-64.724C4.968,116.964,4.947,96.118,4.927,80.3,4.888,50,12.017,9.43,13.15,2.277c.9-5.66,12.029,1.016,12.029,1.016l10.8,129.994-.077.065.123,1.036L32.816,194.3Z" transform="translate(76.544 231.343) rotate(180)" fill="#f8cdba"></path><path id="Union_63" data-name="Union 63" d="M16.019,2.277s-1.965-5.66-2.869,0C12.017,9.43,4.888,50,4.927,80.3c.02,15.66-.383,34.893,4.175,47.945.842,2.417-1.375,11.375-1.375,11.375s8.089,2,11.625,2c0,0-5.579-37.77-6.875-72.375A409.513,409.513,0,0,1,16.019,2.277Z" transform="translate(76.544 231.343) rotate(180)" fill="url(#linear-gradient-30)"></path><path id="Path_2499" data-name="Path 2499" d="M-2453.652,3400.94l-23.378,82.739s24.612,8.2,50.1,9.426,51.844-4.539,51.844-4.539-8.891-61.653-22.343-87.627C-2429.206,3401.6-2453.652,3400.94-2453.652,3400.94Z" transform="translate(2502.948 -3400.94)" fill="url(#linear-gradient-31)"></path><path id="Path_7347" data-name="Path 7347" d="M4.576,20.146C4.576,16.292-2.432,7.621.9,3.854,2.736,1.84,8.255.788,15.613.263,17.015.175,23.672,0,25.687,0c13.84.088,23.693.09,25.007,1.4.5.522,1.587,3.983-.318,5.678-5.43,4.841-22.507,11.443-27.843,13.064-6.92,2.1-9.46-2.978-9.46-2.978" transform="translate(161.25 226.461) rotate(155)" fill="#e5e5ff"></path><path id="Path_7348" data-name="Path 7348" d="M4.576,20.147C4.576,16.293-2.432,7.621.9,3.854,2.736,1.84,8.255.788,15.613.263,17.015.175,23.672,0,25.686,0c13.84.088,24.7-.263,26.016,1.051A3.644,3.644,0,0,1,51.128,6.2c-6.045,5-23.412,12.376-28.6,13.951-6.92,2.1-9.46-2.978-9.46-2.978" transform="matrix(-1, -0.017, 0.017, -1, 69.835, 246.834)" fill="#e5e5ff"></path><path id="Path_7351" data-name="Path 7351" d="M-10.763,5.1c-1.5-3.659,7.8-4.65,13.4-4.877C3.7.182,18.181-.366,19.714-.366c10.53.038,18.508.879,19.508,1.446C39.6,1.306,41,2.466,39.546,3.2" transform="translate(151.135 231.024) rotate(155)" fill="url(#linear-gradient-32)"></path><path id="Path_7353" data-name="Path 7353" d="M-10.837-6.23C-12.919-9.292-1.727-8.966,2.433-8.3,3.5-8.341,19.278-5.91,21.219-5.275,30.92-2.767,38.832-.254,39.832.313c.382.225,1.651,1.461.2,2.193" transform="matrix(-0.978, 0.208, -0.208, -0.978, 57.768, 237.374)" fill="url(#linear-gradient-33)"></path><path id="Path_7352" data-name="Path 7352" d="M11.622,5.9c.016-.785,5.41-2.7,6.943-2.7,10.53.038,10.277,1.434,8.828,2.166-4.131,2.09-9.984,4.773-14.043,5.473" transform="translate(148.135 223.023) rotate(155)" fill="url(#linear-gradient-34)"></path><path id="Path_7354" data-name="Path 7354" d="M11.622,5.9c.016-.785,5.41-2.7,6.943-2.7,10.53.038,10.48,1.69,9.031,2.422-4.131,2.09-10.211,4.743-14.27,5.442" transform="matrix(-1, -0.017, 0.017, -1, 61.903, 237.425)" fill="url(#linear-gradient-35)"></path></g><g id="Group_7823" data-name="Group 7823" transform="translate(1222.79 3307.064)"><g id="Group_7826" data-name="Group 7826" transform="matrix(0.966, -0.259, 0.259, 0.966, 0, 63.752)"><path id="Path_2515" data-name="Path 2515" d="M52.142,12.144s-3.591,7.2-16.8-.406a51.089,51.089,0,0,0-7.351-3.626,84.124,84.124,0,0,1-9.766,5.329c-4.18,1.773-5.444,1.751-7.165,1.846-3.431-1.18,4.1-3.329,3.075-4.126S1.715,15.182-1.024,14.15C-1.024,8.83,22.03,0,26.627,0A96.183,96.183,0,0,1,39.434,1.192C51.689,2.981,52.142,12.144,52.142,12.144Z" transform="matrix(0.819, 0.574, -0.574, 0.819, 8.768, 0)" fill="#f3c8b1"></path><path id="Path_7331" data-name="Path 7331" d="M0,6.314S15.64-.245,19.677.007s13.874,13.37,13.874,13.37" transform="translate(102.344 85.763) rotate(-175)" fill="none" stroke="#000" stroke-linecap="round" stroke-width="1"></path></g><g id="Component_83_1" data-name="Component 83 – 1" transform="translate(35.646 0)"><path id="Path_109" data-name="Path 109" d="M680.1,110.643c-5.639,1.805-14.945,7.67-29.3,15.808s-27.75,19.8-27.75,19.8.381-1.548-14.191-9.475-26.356-14.231-30.642-14.942c-2.653,2.642-7.841,8.633-6.834,10s31,42.086,57.439,41.539c.291-.006,10.728.295,40.061-19.539" transform="translate(-567.03 -44.65)" fill="#ff5c06"></path><path id="Path_110" data-name="Path 110" d="M707.053,107.667c-12.352-2-20.711,4.756-27.848,14.961-3.843,5.467-11.895,11.844-13.542,20.136-1.555,8.2,4.511,19.828,8.744,35.794s7.844,22.843,9.765,25.029c4.666,5.193,58.258,2.5,62.375-2.33,3.467-4.066,7.648-67.268-14.548-87.879C728.026,109.686,712.287,107.869,707.053,107.667Z" transform="translate(-578.574 -44.279)" fill="#ff5c06"></path><path id="SHADOW-3" data-name="SHADOW" d="M669.846,171.375c4.233,15.965,10.829,33.063,12.75,35.25,4.666,5.193,35.583.667,35.583.667A56.671,56.671,0,0,1,669.846,171.375Z" transform="translate(-576.574 -46.279)" fill="url(#linear-gradient-36)"></path><path id="Path_115" data-name="Path 115" d="M674.484,130.4c-8.418,12.664-9.054,10.345-4.022,32.394" transform="translate(-578.611 -41.22)" fill="none" stroke="#1f161e" stroke-linecap="round" stroke-linejoin="round" stroke-width="1"></path><path id="Path_7340" data-name="Path 7340" d="M8498.934-12742.512s-15.871,10.449-27.5,11.762-20.937-6.687-20.937-6.687,17.588-1.75,28.9-6.562a50.241,50.241,0,0,0,17.447-12.069Z" transform="translate(-8408.979 12859.346)" fill="url(#linear-gradient-37)"></path><path id="Path_123" data-name="Path 123" d="M700.745,129.4a2.808,2.808,0,1,1-1.922.82A2.639,2.639,0,0,1,700.745,129.4Z" transform="translate(-581.357 -46.131)" fill="none" stroke="#fff" stroke-width="1"></path><path id="Path_124" data-name="Path 124" d="M700.745,141.8a2.808,2.808,0,1,1-1.922.82A2.639,2.639,0,0,1,700.745,141.8Z" transform="translate(-581.357 -47.234)" fill="none" stroke="#fff" stroke-width="1"></path><path id="Path_125" data-name="Path 125" d="M700.745,154.3a2.808,2.808,0,1,1-1.922.82A2.639,2.639,0,0,1,700.745,154.3Z" transform="translate(-581.357 -48.345)" fill="none" stroke="#fff" stroke-width="1"></path><path id="Path_132" data-name="Path 132" d="M594,168.687s14.006,11.6,23.522,11.6c9.424,0,19.5-5.478,19.5-5.478" transform="translate(-559.174 -51.795)" fill="none" stroke="#000" stroke-linecap="round" stroke-linejoin="round" stroke-width="1"></path><path id="Path_159" data-name="Path 159" d="M29.922,2.733S23,22.006,10.554,24.922c-5.307,1.367-8.548,1.011-9.545-.139C.032,23.4,8.7,17.01,8.247,16.008c-.366-.82-6.806,5.79-7.788,4.948-1.555-.662,1.189-4.009,3.019-6.1,5.856-7.016,8.114-6.44,8.114-6.44s-7.046,1.155-8.876-.3C1.893,6.924,6.651,6.56,8.664,4.829A11.975,11.975,0,0,1,17.936,2c2.115-.789,3.847-3.418,3.847-3.418Z" transform="translate(134.603 192.112) rotate(-14)" fill="#ffc8b3"></path><path id="Path_160" data-name="Path 160" d="M731.035,112.891c16.287-2.824,44.194,58.22,40.808,67.513,0,22.869-23.522,55.6-23.522,55.6s-9.875-4.3-12.528-6.488c1.189-2,4.508-35.485,11.278-47.512-8.967-6.924-32.049-27.291-34.428-39.955S714.657,115.715,731.035,112.891Z" transform="translate(-582.55 -44.655)" fill="#ff5c06"></path><path id="Path_7339" data-name="Path 7339" d="M1411.582,3426.973c.161-.991,10.375,11.375,13.313,13.125-4.625,10.063-8.687,26.563-8.687,26.563S1411.726,3442.345,1411.582,3426.973Z" transform="translate(-1258.436 -3306.064)" fill="url(#linear-gradient-38)"></path><path id="Path_161" data-name="Path 161" d="M750.767,181.438s-8.914,12.587-11.75,35" transform="translate(-581.995 -50.843)" fill="none" stroke="#000" stroke-linecap="round" stroke-width="1"></path><path id="Path_162" data-name="Path 162" d="M745.916,185.353A49.271,49.271,0,0,1,732.1,173.6" transform="matrix(0.995, 0.105, -0.105, 0.995, -556.447, -128.324)" fill="none" stroke="#000" stroke-linecap="round" stroke-width="1"></path><path id="Path_7335" data-name="Path 7335" d="M.157,0S-1.47,3.487,5.737,17.9" transform="translate(59.626 105.241) rotate(145)" fill="none" stroke="#000" stroke-linecap="round" stroke-width="1"></path><g id="Component_80_2" data-name="Component 80 – 2" transform="translate(90.022 0.267)"><g id="Group_2298" data-name="Group 2298" transform="translate(0 0)"><path id="Path_2599" data-name="Path 2599" d="M-994.029,4374.014s-1.45-13.325,5.859-20.635c6.265-7.935,29.916-12.875,39.522,7.172,10.441,24.851-10.925,39.984-10.925,39.984V4388Z" transform="translate(1004.261 -4347.336)" fill="url(#linear-gradient-39)"></path><g id="Group_2294" data-name="Group 2294" transform="translate(0 2.984) rotate(-3)"><g id="Group_2091" data-name="Group 2091" transform="matrix(0.998, 0.07, -0.07, 0.998, 4.847, 0)"><path id="Path_1598" data-name="Path 1598" d="M0,28.777c0,3.549,20.543,3.652,20.543,0V0H0Z" transform="translate(20.212 38.001)" fill="#ffc8b3"></path><path id="Path_1597" data-name="Path 1597" d="M0,9.967c2.753,0,20.314,7.185,20.314,11.2V0C15.937,0,0,9.967,0,9.967Z" transform="translate(20.441 34.49)" fill="url(#linear-gradient-40)"></path><ellipse id="Ellipse_99" data-name="Ellipse 99" cx="19.679" cy="19.679" rx="19.679" ry="19.679" transform="translate(50.447 36.985) rotate(160)" fill="#f8cdba"></ellipse><path id="Path_1596" data-name="Path 1596" d="M0,10.159C6.031,6.438,6.3,2.508.731,0" transform="translate(17.767 34.373) rotate(160)" fill="none" stroke="#1f161e" stroke-linecap="round" stroke-miterlimit="10" stroke-width="1"></path><path id="Path_1594" data-name="Path 1594" d="M7.237,3.246S3.709,3.694,0,0" transform="matrix(0.545, -0.839, 0.839, 0.545, 23.769, 38.684)" fill="none" stroke="#000" stroke-linecap="round" stroke-width="1"></path><ellipse id="Ellipse_100" data-name="Ellipse 100" cx="5.305" cy="5.305" rx="5.305" ry="5.305" transform="translate(52.296 26.164) rotate(160)" fill="#f8cdba"></ellipse></g></g></g><g id="Group_2299" data-name="Group 2299" transform="translate(42.676 45.263)"><path id="Path_2601" data-name="Path 2601" d="M6310.388,3026.333s-3.373,3.5-3.295,6.841,2.387,4.21,2.387,4.21.427-4.036.908-3.375,1.02,6.02,1.02,6.02a8.843,8.843,0,0,0,3.663-6.02c.4-3.9-2.136-7.676-2.136-7.676Z" transform="translate(-6306.254 -3002.267)" fill="#ffa005"></path><circle id="Ellipse_262" data-name="Ellipse 262" cx="5.283" cy="5.283" r="5.283" fill="#ffa005"></circle><circle id="Ellipse_263" data-name="Ellipse 263" cx="5.283" cy="5.283" r="5.283" transform="translate(0 7.924)" fill="#ffa005"></circle><circle id="Ellipse_264" data-name="Ellipse 264" cx="5.283" cy="5.283" r="5.283" transform="translate(0 15.848)" fill="#ffa005"></circle></g><rect id="Rectangle_228" data-name="Rectangle 228" width="6.682" height="1.671" transform="translate(44.271 70.322)" fill="url(#linear-gradient-41)"></rect><path id="Path_2604" data-name="Path 2604" d="M-994.165,4373.647h26.73l1.671-7.1,2.506,7.1h8.492s1.2-21.041-24.116-19.227C-996.436,4356.741-994.165,4373.647-994.165,4373.647Z" transform="translate(1003.189 -4349.432)" fill="url(#linear-gradient-42)"></path></g></g></g></g><g id="pot" transform="translate(101.146 406)"><g id="Garden_outdoors_-_Flower13" data-name="Garden &amp; outdoors - Flower13" transform="translate(1200.999 156)"><g id="Group_3032" data-name="Group 3032" transform="translate(249.051 93.746) rotate(158)"><path id="Path_2383" data-name="Path 2383" d="M139.6,0S125.863,64.894,88.336,87.772,9.944,102.465,1.6,75.6,18.633,19.9,49.913,35.14c17.072,11.229,34.333,15.683,47.106,5.145a46.477,46.477,0,0,0,15.453-24.626Z" transform="translate(0 0)" fill="#a9e5bd"></path><path id="Path_2384" data-name="Path 2384" d="M106.482,0S93.764,52.8,43.987,19.8C31.48,11.511,8.91,15.022,0,29.962c0,0,22.934-11.262,46.855,2.48,28.8,16.547,56-.753,63.1-32.443Z" transform="translate(6.039 15.659)" fill="url(#linear-gradient-43)"></path><path id="Path_2385" data-name="Path 2385" d="M110.413,0s-7.308,54.931-48.172,73.822S0,63.7,0,63.7s19.373,15.707,50.784,3.533C77.876,56.736,97.695,38.62,110.413,0Z" transform="translate(19.427 1.384)" fill="#1cb54f" opacity="0.3"></path></g><g id="Group_3033" data-name="Group 3033" transform="matrix(0.819, 0.574, -0.574, 0.819, 47.012, 21.891)"><path id="Path_2383-2" data-name="Path 2383" d="M135.674,81.963S122.325,29.357,85.853,10.811,9.664-1.1,1.56,20.68s16.55,45.154,46.95,32.8c16.592-9.1,33.368-12.713,45.782-4.17s15.019,19.962,15.019,19.962Z" transform="translate(0 0)" fill="#96dcae"></path><path id="Path_2384-2" data-name="Path 2384" d="M103.489,31.476s-12.36-42.8-60.738-16.053C30.6,22.144,8.659,19.3,0,7.187c0,0,22.289,9.129,45.538-2.01,27.991-13.413,54.424.61,61.324,26.3Z" transform="translate(5.869 37.793)" fill="url(#linear-gradient-44)"></path><path id="Path_2385-2" data-name="Path 2385" d="M107.31,65.023s-7.1-44.53-46.818-59.843S0,13.384,0,13.384,18.828.651,49.357,10.52C75.687,19.03,94.949,33.716,107.31,65.023Z" transform="translate(18.881 15.818)" fill="#1cb54f" opacity="0.2"></path></g><path id="Path_2979" data-name="Path 2979" d="M-7162.88-7415.256s16.3-40.6,61.648-30.056c0,0,.025-10.453-13.684-21,0,0,20.011,4.125,22.12,21,0,0,27.42,0,21.092-17.928,0,0,6.328-26.365-28.474-32.691s-66.5,8.436-73.854,80.675Z" transform="translate(7285.055 7582.719)" fill="#c9f3d7"></path><path id="Path_2983" data-name="Path 2983" d="M-7163.313-7417.441s16.3-40.6,61.647-30.055a37.133,37.133,0,0,0-3.207-9.65s-42.862-3.532-61.22,39.706Z" transform="translate(7285.488 7584.904)" fill="url(#linear-gradient-45)"></path><path id="Path_2984" data-name="Path 2984" d="M-7100.161-7456.618s12.684.441,17.5,6.348a35.7,35.7,0,0,1-14.167,2.742A21.5,21.5,0,0,0-7100.161-7456.618Z" transform="translate(7289.087 7584.936)" fill="url(#linear-gradient-46)"></path><path id="Path_2980" data-name="Path 2980" d="M-7071.864-7464.262s-21.656-11.891-44.913-8.374c-34.175,5.169-54.312,60.128-54.312,60.128s2.352-25.779,24.992-49.221C-7112.265-7496.762-7071.583-7466.493-7071.864-7464.262Z" transform="translate(7285.215 7583.742)" fill="#1cb54f" opacity="0.2"></path><path id="Path_2981" data-name="Path 2981" d="M-7168.564-7415.764s2.15-41.587-29.761-60.91-66.662-12.411-73.752,10.282,14.48,47.048,41.08,34.173c14.518-9.484,29.195-13.246,40.057-4.344a39.192,39.192,0,0,1,13.141,20.8Z" transform="translate(7279.589 7583.227)" fill="#b8ebc9"></path><path id="Path_2985" data-name="Path 2985" d="M-7178.063-7417.8s-10.814-44.6-53.143-16.726c-10.636,7-29.828,4.037-37.405-8.582,0,0,19.5,9.512,39.844-2.1,24.49-13.976,47.618.636,53.655,27.4Z" transform="translate(7279.893 7585.265)" fill="url(#linear-gradient-47)"></path><path id="Path_2982" data-name="Path 2982" d="M-7170.881-7414.456s3.014-33.686-31.735-49.641-62.406-3.191-70.915,9.929c0,0,33.047-17.507,59.759-7.224C-7190.735-7452.524-7181.7-7447.077-7170.881-7414.456Z" transform="translate(7279.624 7584.123)" fill="#1cb54f" opacity="0.2"></path></g><g id="Garden_outdoors_-_pot3" data-name="Garden &amp; outdoors - pot3" transform="translate(1270.125 322.556)"><path id="Path_2617" data-name="Path 2617" d="M78.606-3.186c35.211-7.849,56.46-6.971,60.219,0S128.153,11.4,92.935,11.4H60.73S43.4,4.663,78.606-3.186Z" transform="translate(-35.418 54.715)" opacity="0.04"></path><path id="Path_2607" data-name="Path 2607" d="M3193.665-5843.3a9.012,9.012,0,0,0,7.084-3.412c10.014-12.71,16.412-32.082,16.412-53.784v-.093a9.041,9.041,0,0,0-9.058-9h-70.811a9.04,9.04,0,0,0-9.058,9v.093c0,21.7,6.4,41.073,16.413,53.784a9.012,9.012,0,0,0,7.084,3.412Z" transform="translate(-3128.235 5909.587)" fill="url(#linear-gradient-48)"></path><g id="Mask_Group_17" data-name="Mask Group 17" clip-path="url(#clip-path-10)"><path id="Path_2608" data-name="Path 2608" d="M47.369,0A47.369,47.369,0,1,1,0,47.369,47.369,47.369,0,0,1,47.369,0Z" transform="translate(-24.393 -37.281)" fill="#c7e2fe"></path><path id="Path_2609" data-name="Path 2609" d="M3627.294-6067.286l.408.408a6.405,6.405,0,0,0,9.028.032l.125-.125a6.406,6.406,0,0,1,9.028.031l.062.061a6.4,6.4,0,0,0,9.028.032l.125-.125a6.406,6.406,0,0,1,9.028.031l.062.061a6.4,6.4,0,0,0,9.028.032l.126-.125a6.406,6.406,0,0,1,9.028.031l.062.061a6.4,6.4,0,0,0,9.027.032l.126-.125a6.4,6.4,0,0,1,9.027.031l.031.03a6.406,6.406,0,0,0,9.059,0l.094-.094a6.405,6.405,0,0,1,9.09.032h0a6.405,6.405,0,0,0,9.09.03l.031-.03" transform="translate(-3633.186 6116.105)" fill="none" stroke="#fff" stroke-width="1"></path><g id="Group_2912" data-name="Group 2912" transform="translate(-5.892 6.758)"><path id="Path_2610" data-name="Path 2610" d="M3627.294-6067.286l.408.408a6.405,6.405,0,0,0,9.028.032l.125-.125a6.406,6.406,0,0,1,9.028.031l.062.061a6.4,6.4,0,0,0,9.028.032l.125-.125a6.406,6.406,0,0,1,9.028.031l.062.061a6.4,6.4,0,0,0,9.028.032l.126-.125a6.406,6.406,0,0,1,9.028.031l.062.061a6.4,6.4,0,0,0,9.027.032l.126-.125a6.4,6.4,0,0,1,9.027.031l.031.03a6.406,6.406,0,0,0,9.059,0l.094-.094a6.405,6.405,0,0,1,9.09.032h0a6.405,6.405,0,0,0,9.09.03l.031-.03" transform="translate(-3627.294 6068.878)" fill="none" stroke="#fff" stroke-width="1"></path><circle id="Ellipse_287" data-name="Ellipse 287" cx="2.7" cy="2.7" r="2.7" transform="translate(11.388 4.066)" fill="#fff"></circle><circle id="Ellipse_288" data-name="Ellipse 288" cx="2.7" cy="2.7" r="2.7" transform="translate(29.388 4.066)" fill="#fff"></circle><circle id="Ellipse_289" data-name="Ellipse 289" cx="2.7" cy="2.7" r="2.7" transform="translate(47.389 4.066)" fill="#fff"></circle><circle id="Ellipse_290" data-name="Ellipse 290" cx="2.7" cy="2.7" r="2.7" transform="translate(66.29 4.066)" fill="#fff"></circle><circle id="Ellipse_291" data-name="Ellipse 291" cx="2.7" cy="2.7" r="2.7" transform="translate(84.29 4.066)" fill="#fff"></circle></g></g><path id="Path_2612" data-name="Path 2612" d="M-7558.2-7821.8v18.153" transform="translate(7602.349 7842.505)" fill="none" stroke="#fff" stroke-linecap="round" stroke-width="1"></path><path id="Path_2613" data-name="Path 2613" d="M-7558.988-7821.8l-1.462,19.424" transform="translate(7622.211 7841.87)" fill="none" stroke="#fff" stroke-linecap="round" stroke-width="1"></path><path id="Path_2614" data-name="Path 2614" d="M-7561.587-7821.8l-5.913,21.65" transform="translate(7642.613 7841.87)" fill="none" stroke="#fff" stroke-linecap="round" stroke-width="1"></path><path id="Path_2615" data-name="Path 2615" d="M-7558.2-7821.8l1.876,18.789" transform="translate(7584.546 7842.505)" fill="none" stroke="#fff" stroke-linecap="round" stroke-width="1"></path><path id="Path_2616" data-name="Path 2616" d="M-7558.2-7821.8l4.1,21.014" transform="translate(7566.743 7841.87)" fill="none" stroke="#fff" stroke-linecap="round" stroke-width="1"></path></g></g><g id="arrow" transform="translate(789.277 -3184.674) rotate(17)"><g id="arrow-2" data-name="arrow" transform="matrix(0.996, 0.087, -0.087, 0.996, 281.784, -135.259)"><path id="item_1" d="M1711.727,3134.185l-28.583,37.506-15.44-.923Z" transform="translate(0 0.055)" fill="#c7f2f8"></path><g id="item_2" transform="translate(1.205 -3)" fill="#eefdff" stroke-linecap="round"><path d="M 1687.766235351563 3185.676513671875 L 1678.596801757813 3174.35009765625 L 1707.248901367188 3142.428955078125 L 1687.766235351563 3185.676513671875 Z" stroke="none"></path><path d="M 1703.693115234375 3147.8876953125 L 1679.910522460938 3174.383544921875 L 1687.521484375 3183.78515625 L 1703.693115234375 3147.8876953125 M 1710.804809570313 3136.970458984375 L 1688.010864257813 3187.568115234375 L 1677.283081054688 3174.316650390625 L 1710.804809570313 3136.970458984375 Z" stroke="none" fill="#c7f2f8"></path></g><g id="item_3" transform="translate(-0.055 0.374)" fill="#eefdff" stroke-linecap="round"><path d="M 1689.686157226563 3180.773193359375 L 1688.102783203125 3171.29541015625 L 1702.804443359375 3150.16748046875 L 1689.686157226563 3180.773193359375 Z" stroke="none"></path><path d="M 1690.110473632813 3177.24462890625 L 1698.01708984375 3158.79833984375 L 1689.156127929688 3171.532470703125 L 1690.110473632813 3177.24462890625 M 1689.26171875 3184.301513671875 L 1687.04931640625 3171.05859375 L 1707.591796875 3141.536865234375 L 1689.26171875 3184.301513671875 Z" stroke="none" fill="#c7f2f8"></path></g><path id="item_4" d="M1681.168,3171.478l15.275,2.086,9.583-39.331Z" transform="translate(5.975 0.068)" fill="#c7f2f8"></path></g><path id="line" d="M809.376,3157.188s-20.761,28.858-41.246,36.263-47.889,3.322-40.692-6.644,26.851-5.259,24.914,4.706-32.83,26.4-52.208,28.9" transform="translate(286.848 252.906) rotate(-11)" fill="none" stroke="#c7f2f8" stroke-linecap="round" stroke-width="2" stroke-dasharray="4"></path></g><g id="mini_calendar" data-name="mini calendar" transform="translate(245.993 -443.289) rotate(11)"><path id="box" d="M6,0H54a6,6,0,0,1,6,6V16.939a0,0,0,0,1,0,0H0a0,0,0,0,1,0,0V6A6,6,0,0,1,6,0Z" transform="translate(1098.963 414.059)" fill="url(#linear-gradient-49)"></path><g id="box-2" data-name="box" transform="translate(1098.963 429.816)" fill="#fff" stroke="#bcf7ff" stroke-width="2"><path d="M0,0H60a0,0,0,0,1,0,0V40.273a7,7,0,0,1-7,7H7a7,7,0,0,1-7-7V0A0,0,0,0,1,0,0Z" stroke="none"></path><path d="M2,1H58a1,1,0,0,1,1,1V40.273a6,6,0,0,1-6,6H7a6,6,0,0,1-6-6V2A1,1,0,0,1,2,1Z" fill="none"></path></g><circle id="hole" cx="2.5" cy="2.5" r="2.5" transform="translate(1125.827 420.225)" fill="#fff"></circle><g id="text" transform="translate(1113.509 430.422)"><text id="_27" data-name="27" transform="translate(14.818 25)" fill="#00c9e4" font-size="24" font-family="DMSans-Bold, DM Sans" font-weight="700" opacity="0.56"><tspan x="-13.152" y="0">27</tspan></text><text id="MON" transform="translate(15.191 37.042)" fill="#bbf6ff" font-size="10" font-family="DMSans-Bold, DM Sans" font-weight="700"><tspan x="-11.975" y="0">MON</tspan></text></g></g><g id="lines" transform="matrix(0.974, -0.225, 0.225, 0.974, -118.384, 227.353)"><path id="line-2" data-name="line" d="M8515.686-13156.473c26,11.593,36.879,17.365,60.256,34.287" transform="matrix(0.996, -0.087, 0.087, 0.996, -6170.376, 13991.896)" fill="none" stroke="#caedf2" stroke-linecap="round" stroke-width="2"></path><path id="line-3" data-name="line" d="M8583-13119.417c4.917,3.917,8.917,7.75,8.917,7.75" transform="translate(-6648.817 13727.459) rotate(-3)" fill="#a8d2ff" stroke="#caedf2" stroke-linecap="round" stroke-width="2"></path></g><g id="lines-2" data-name="lines" transform="matrix(0.438, -0.899, 0.899, 0.438, -99.834, 1257.249)" opacity="0.45"><path id="line-4" data-name="line" d="M8515.686-13156.473c26,11.593,36.879,17.365,60.256,34.287" transform="matrix(0.996, -0.087, 0.087, 0.996, -6170.376, 13991.896)" fill="none" stroke="#caedf2" stroke-linecap="round" stroke-width="2"></path><path id="line-5" data-name="line" d="M8583-13119.417c4.917,3.917,8.917,7.75,8.917,7.75" transform="translate(-6648.817 13727.459) rotate(-3)" fill="#a8d2ff" stroke="#caedf2" stroke-linecap="round" stroke-width="2"></path></g><g id="mail" transform="matrix(0.891, -0.454, 0.454, 0.891, 303.847, 261.399)"><g id="box-3" data-name="box" transform="translate(569.696 243.2)" fill="#fff" stroke="#caedf2" stroke-width="2"><rect width="60.182" height="37.741" rx="3" stroke="none"></rect><rect x="1" y="1" width="58.182" height="35.741" rx="2" fill="none"></rect></g><g id="box-4" data-name="box" transform="translate(579.897 233)" stroke="#caedf2" stroke-width="2" fill="url(#linear-gradient-50)"><rect width="60.182" height="37.741" rx="3" stroke="none"></rect><rect x="1" y="1" width="58.182" height="35.741" rx="2" fill="none"></rect></g><g id="Polygon_63" data-name="Polygon 63" transform="translate(638.039 253.401) rotate(180)" fill="#fff"><path d="M 53.02695465087891 19.40078163146973 L 3.075190305709839 19.40078163146973 L 28.05107307434082 1.236500859260559 L 53.02695465087891 19.40078163146973 Z" stroke="none"></path><path d="M 28.05107307434082 2.472990036010742 L 6.150363922119141 18.40078163146973 L 49.9517822265625 18.40078163146973 L 28.05107307434082 2.472990036010742 M 28.05107307434082 0 L 56.10214233398438 20.40078163146973 L 3.814697265625e-06 20.40078163146973 L 28.05107307434082 0 Z" stroke="none" fill="#caedf2"></path></g><path id="line-6" data-name="line" d="M0,0S10.455,3.57,15.046,6.631" transform="matrix(0.891, -0.454, 0.454, 0.891, 543.313, 243.41)" fill="none" stroke="#caedf2" stroke-linecap="round" stroke-width="2"></path><path id="line-7" data-name="line" d="M0,0S10.455,3.57,15.046,6.631" transform="matrix(0.891, -0.454, 0.454, 0.891, 534.242, 250.322)" fill="none" stroke="#caedf2" stroke-linecap="round" stroke-width="2"></path><path id="line-8" data-name="line" d="M0,0S10.455,3.57,15.046,6.631" transform="matrix(0.891, -0.454, 0.454, 0.891, 540.673, 256.203)" fill="none" stroke="#caedf2" stroke-linecap="round" stroke-width="2"></path></g><g id="clock" transform="translate(-1110.685 -549.16) rotate(-30)"><path id="circle" d="M40,0A40,40,0,1,1,0,40,40,40,0,0,1,40,0Z" transform="translate(1160.297 1511.232)" fill="#c4f7ff" opacity="0.35"></path><path id="circle-2" data-name="circle" d="M35.613,0A35.613,35.613,0,1,1,0,35.613,35.613,35.613,0,0,1,35.613,0Z" transform="translate(1164.617 1515.817)" fill="url(#linear-gradient-51)"></path><circle id="shadow-4" data-name="shadow" cx="30.224" cy="30.224" r="30.224" transform="translate(1170.113 1521.313)" fill="#fff"></circle><g id="hours" transform="translate(1198.434 1525.54)"><circle id="Ellipse_1770" data-name="Ellipse 1770" cx="1.902" cy="1.902" r="1.902" transform="translate(0 0)" fill="#e4e4e4"></circle><circle id="Ellipse_1771" data-name="Ellipse 1771" cx="1.902" cy="1.902" r="1.902" transform="translate(0 48.189)" fill="#e4e4e4"></circle></g><g id="hours-2" data-name="hours" transform="translate(1226.333 1549.634) rotate(90)"><circle id="Ellipse_1770-2" data-name="Ellipse 1770" cx="1.902" cy="1.902" r="1.902" fill="#e4e4e4"></circle><circle id="Ellipse_1771-2" data-name="Ellipse 1771" cx="1.902" cy="1.902" r="1.902" transform="translate(0 48.189)" fill="#e4e4e4"></circle></g><rect id="Arrow_1" width="2.325" height="12.47" transform="matrix(0.848, -0.53, 0.53, 0.848, 1192.909, 1541.526)" fill="#caedf2"></rect><rect id="Arrow_2" width="2.325" height="18.388" transform="translate(1199.245 1551.477)" fill="#caedf2"></rect><circle id="circle-3" data-name="circle" cx="3.065" cy="3.065" r="3.065" transform="translate(1197.378 1548.366)" fill="#00c9e4"></circle></g><g id="tel" transform="translate(-27 -0.125)"><g id="circle_1" transform="translate(482 315.125)" fill="none" stroke="#caedf2" stroke-width="2" stroke-dasharray="7" opacity="0.6"><circle cx="35.5" cy="35.5" r="35.5" stroke="none"></circle><circle cx="35.5" cy="35.5" r="34.5" fill="none"></circle></g><g id="circle_2" transform="translate(491 324.125)" fill="#fff" stroke="#caedf2" stroke-width="2"><circle cx="26.5" cy="26.5" r="26.5" stroke="none"></circle><circle cx="26.5" cy="26.5" r="25.5" fill="none"></circle></g><path id="call-in" d="M20.709,1.465l-5.5,5.428h2.259a.868.868,0,0,1,.873.862.721.721,0,0,1-.732.82H13.326a.894.894,0,0,1-.222.042.874.874,0,0,1-.617-.253.843.843,0,0,1-.068-1.118V3.38c0-.477.2-.8.685-.8a.867.867,0,0,1,.873.862v2.23l5.5-5.427a.88.88,0,0,1,1.235,0A.854.854,0,0,1,20.709,1.465ZM7.178,8.447,12.4,13.6l2.931-1.447a.881.881,0,0,1,.961.119l4.367,3.716a.855.855,0,0,1,.086,1.223l-2.531,2.844a2.158,2.158,0,0,1-1.621.633c-2.253,0-6.364-2.566-10.229-6.385C2.16,10.154-1.442,4.77.59,2.764L3.5.211a.9.9,0,0,1,.636-.216.878.878,0,0,1,.6.3L8.522,4.6a.856.856,0,0,1,.121.951ZM4,2.08,1.805,4c-.494.491.849,4.2,5.8,9.087,3.865,3.819,7.519,5.878,8.994,5.878a.55.55,0,0,0,.33-.068l1.928-2.169-3.258-2.772-2.974,1.466a.88.88,0,0,1-1.009-.161L5.5,9.227a.855.855,0,0,1-.164-1L6.819,5.3Z" transform="translate(506.701 340.624)" fill="#a6ecf6" fill-rule="evenodd"></path></g></g></svg> 